<svg width="1200" height="760" viewBox="0 0 1200 760" fill="none" xmlns="http://www.w3.org/2000/svg">
  <rect width="1200" height="760" rx="36" fill="#0F172A"/>
  <rect x="34" y="34" width="1132" height="692" rx="28" fill="#111827"/>
  <rect x="58" y="58" width="250" height="644" rx="24" fill="#1E1B4B"/>
  <text x="92" y="114" fill="#FFFFFF" font-family="Segoe UI, Arial, sans-serif" font-size="30" font-weight="700">Hisab Kitab</text>
  <rect x="88" y="160" width="190" height="48" rx="16" fill="#7C3AED"/>
  <text x="114" y="191" fill="#FFFFFF" font-family="Segoe UI, Arial, sans-serif" font-size="20" font-weight="600">Dashboard</text>
  <text x="92" y="252" fill="#CBD5E1" font-family="Segoe UI, Arial, sans-serif" font-size="22">Invoice Generator</text>
  <text x="92" y="300" fill="#CBD5E1" font-family="Segoe UI, Arial, sans-serif" font-size="22">History</text>
  <text x="92" y="348" fill="#CBD5E1" font-family="Segoe UI, Arial, sans-serif" font-size="22">Download</text>

  <rect x="336" y="58" width="806" height="86" rx="24" fill="#172036"/>
  <text x="374" y="111" fill="#FFFFFF" font-family="Segoe UI, Arial, sans-serif" font-size="30" font-weight="700">Invoice Command Center</text>

  <rect x="336" y="168" width="360" height="250" rx="24" fill="#172036"/>
  <text x="368" y="214" fill="#FFFFFF" font-family="Segoe UI, Arial, sans-serif" font-size="24" font-weight="700">Invoice Details</text>
  <rect x="368" y="244" width="296" height="18" rx="9" fill="#334155"/>
  <rect x="368" y="282" width="296" height="18" rx="9" fill="#334155"/>
  <rect x="368" y="320" width="136" height="18" rx="9" fill="#334155"/>
  <rect x="528" y="320" width="136" height="18" rx="9" fill="#334155"/>
  <rect x="368" y="358" width="220" height="18" rx="9" fill="#334155"/>

  <rect x="336" y="440" width="360" height="238" rx="24" fill="#172036"/>
  <text x="368" y="486" fill="#FFFFFF" font-family="Segoe UI, Arial, sans-serif" font-size="24" font-weight="700">Auto Calculation</text>
  <rect x="368" y="520" width="296" height="22" rx="11" fill="#25324A"/>
  <rect x="368" y="560" width="296" height="22" rx="11" fill="#25324A"/>
  <rect x="368" y="600" width="296" height="32" rx="16" fill="#7C3AED"/>

  <rect x="720" y="168" width="422" height="510" rx="24" fill="#F8FAFC"/>
  <text x="754" y="216" fill="#0F172A" font-family="Segoe UI, Arial, sans-serif" font-size="30" font-weight="700">Invoice Preview</text>
  <rect x="754" y="244" width="160" height="14" rx="7" fill="#CBD5E1"/>
  <rect x="754" y="292" width="310" height="12" rx="6" fill="#E2E8F0"/>
  <rect x="754" y="320" width="310" height="12" rx="6" fill="#E2E8F0"/>
  <rect x="754" y="348" width="220" height="12" rx="6" fill="#E2E8F0"/>
  <rect x="754" y="400" width="328" height="1" fill="#CBD5E1"/>
  <rect x="754" y="438" width="280" height="12" rx="6" fill="#E2E8F0"/>
  <rect x="754" y="466" width="260" height="12" rx="6" fill="#E2E8F0"/>
  <rect x="754" y="494" width="240" height="12" rx="6" fill="#E2E8F0"/>
  <rect x="754" y="558" width="190" height="34" rx="17" fill="#7C3AED"/>
  <text x="778" y="581" fill="#FFFFFF" font-family="Segoe UI, Arial, sans-serif" font-size="18" font-weight="700">Total: Rs 11,800</text>
</svg>
