<svg width="1280" height="860" viewBox="0 0 1280 860" fill="none" xmlns="http://www.w3.org/2000/svg">
  <rect width="1280" height="860" rx="28" fill="#F8F7FF"/>
  <text x="640" y="76" text-anchor="middle" fill="#0F172A" font-family="Arial, sans-serif" font-size="58" font-weight="700">Three Simple Steps</text>
  <text x="640" y="126" text-anchor="middle" fill="#4B5563" font-family="Arial, sans-serif" font-size="28">Create &amp; Download Invoice in Minutes</text>

  <circle cx="112" cy="186" r="22" fill="#6D28D9"/>
  <text x="112" y="194" text-anchor="middle" fill="white" font-family="Arial, sans-serif" font-size="24" font-weight="700">1</text>
  <text x="146" y="194" fill="#111827" font-family="Arial, sans-serif" font-size="24" font-weight="700">Sign Up / Login</text>
  <text x="82" y="234" fill="#374151" font-family="Arial, sans-serif" font-size="20">Create a new account or login</text>
  <text x="96" y="264" fill="#374151" font-family="Arial, sans-serif" font-size="20">to access your workspace.</text>

  <circle cx="532" cy="186" r="22" fill="#6D28D9"/>
  <text x="532" y="194" text-anchor="middle" fill="white" font-family="Arial, sans-serif" font-size="24" font-weight="700">2</text>
  <text x="566" y="194" fill="#111827" font-family="Arial, sans-serif" font-size="24" font-weight="700">Generate Invoice</text>
  <text x="540" y="234" fill="#374151" font-family="Arial, sans-serif" font-size="20">Go to Invoice Generator and</text>
  <text x="556" y="264" fill="#374151" font-family="Arial, sans-serif" font-size="20">fill in the details.</text>

  <circle cx="944" cy="186" r="22" fill="#6D28D9"/>
  <text x="944" y="194" text-anchor="middle" fill="white" font-family="Arial, sans-serif" font-size="24" font-weight="700">3</text>
  <text x="978" y="194" fill="#111827" font-family="Arial, sans-serif" font-size="24" font-weight="700">Preview &amp; Download</text>
  <text x="950" y="234" fill="#374151" font-family="Arial, sans-serif" font-size="20">Preview your invoice and</text>
  <text x="970" y="264" fill="#374151" font-family="Arial, sans-serif" font-size="20">download or print it.</text>

  <text x="386" y="205" fill="#6D28D9" font-family="Arial, sans-serif" font-size="56" font-weight="700">→</text>
  <text x="818" y="205" fill="#6D28D9" font-family="Arial, sans-serif" font-size="56" font-weight="700">→</text>

  <rect x="32" y="302" width="364" height="450" rx="22" fill="#11111D"/>
  <rect x="60" y="332" width="94" height="30" rx="15" fill="#22183F"/>
  <text x="107" y="352" text-anchor="middle" fill="#D8B4FE" font-family="Arial, sans-serif" font-size="16" font-weight="700">Welcome Page</text>
  <text x="54" y="422" fill="white" font-family="Arial, sans-serif" font-size="28" font-weight="700">Welcome to Hisab Kitab</text>
  <text x="54" y="468" fill="#B8B8D6" font-family="Arial, sans-serif" font-size="18">A simple invoice website for creating, previewing,</text>
  <text x="54" y="500" fill="#B8B8D6" font-family="Arial, sans-serif" font-size="18">saving, and printing invoices.</text>
  <rect x="54" y="566" width="176" height="54" rx="18" fill="#181829"/>
  <rect x="248" y="566" width="58" height="40" rx="20" stroke="#3F3F5A"/>
  <rect x="316" y="566" width="66" height="40" rx="20" fill="#6D28D9"/>
  <text x="142" y="600" text-anchor="middle" fill="white" font-family="Arial, sans-serif" font-size="18" font-weight="700">Hisab Kitab</text>
  <text x="277" y="592" text-anchor="middle" fill="white" font-family="Arial, sans-serif" font-size="16">Login</text>
  <text x="349" y="592" text-anchor="middle" fill="white" font-family="Arial, sans-serif" font-size="16">Sign Up</text>
  <path d="M250 664C265 664 287 652 300 620" stroke="#7C3AED" stroke-width="5" stroke-linecap="round"/>
  <path d="M288 620L302 622L295 634" stroke="#7C3AED" stroke-width="5" stroke-linecap="round" stroke-linejoin="round"/>

  <rect x="446" y="302" width="374" height="450" rx="22" fill="#11111D"/>
  <rect x="474" y="330" width="120" height="30" rx="10" fill="#17172A"/>
  <text x="610" y="352" fill="white" font-family="Arial, sans-serif" font-size="18" font-weight="700">Hisab Kitab</text>
  <rect x="726" y="330" width="70" height="34" rx="17" fill="#17172A" stroke="#343455"/>
  <text x="761" y="352" text-anchor="middle" fill="white" font-family="Arial, sans-serif" font-size="16">Logout</text>
  <line x1="474" y1="388" x2="792" y2="388" stroke="#27273D"/>
  <text x="474" y="432" fill="#A78BFA" font-family="Arial, sans-serif" font-size="18" font-weight="700">WORKSPACE</text>
  <rect x="474" y="456" width="318" height="48" rx="10" fill="url(#grad1)"/>
  <text x="492" y="488" fill="white" font-family="Arial, sans-serif" font-size="18">Invoice Generator</text>
  <rect x="474" y="516" width="318" height="44" rx="10" fill="#17172A" stroke="#2E2E46"/>
  <text x="492" y="544" fill="white" font-family="Arial, sans-serif" font-size="18">History</text>
  <rect x="474" y="592" width="318" height="164" rx="16" fill="#1A1730" stroke="#2E2A49"/>
  <rect x="524" y="624" width="64" height="90" rx="12" fill="#F5F3FF"/>
  <path d="M573 624L588 639V712" stroke="#C4B5FD" stroke-width="4" stroke-linecap="round" stroke-linejoin="round"/>
  <circle cx="588" cy="700" r="18" fill="#4ADE80"/>
  <text x="582" y="708" fill="white" font-family="Arial, sans-serif" font-size="26" font-weight="700">+</text>
  <text x="642" y="648" fill="white" font-family="Arial, sans-serif" font-size="22" font-weight="700">Create new invoice</text>
  <text x="642" y="688" fill="#B8B8D6" font-family="Arial, sans-serif" font-size="18">Fill in your invoice details</text>
  <text x="642" y="716" fill="#B8B8D6" font-family="Arial, sans-serif" font-size="18">and generate.</text>

  <rect x="864" y="302" width="382" height="450" rx="22" fill="white" stroke="#E5E7EB" stroke-width="2"/>
  <text x="890" y="336" fill="#6D28D9" font-family="Arial, sans-serif" font-size="18" font-weight="700">tinylinkr</text>
  <text x="890" y="360" fill="#6B7280" font-family="Arial, sans-serif" font-size="14">tinylinkr@gmail.com</text>
  <text x="890" y="382" fill="#6B7280" font-family="Arial, sans-serif" font-size="14">+91-764646774</text>
  <text x="890" y="404" fill="#6B7280" font-family="Arial, sans-serif" font-size="14">uttar pardesh</text>
  <text x="1104" y="336" fill="#6B7280" font-family="Arial, sans-serif" font-size="13">Invoice Number: INV-1012</text>
  <text x="1104" y="360" fill="#6B7280" font-family="Arial, sans-serif" font-size="13">Invoice Date: 2026-04-22</text>
  <text x="1104" y="384" fill="#6B7280" font-family="Arial, sans-serif" font-size="13">Due Date: 2026-04-22</text>
  <rect x="888" y="430" width="148" height="90" rx="12" fill="#FAFAFA" stroke="#F1F5F9"/>
  <rect x="1048" y="430" width="170" height="90" rx="12" fill="#FAFAFA" stroke="#F1F5F9"/>
  <text x="904" y="460" fill="#374151" font-family="Arial, sans-serif" font-size="14" font-weight="700">Bill To</text>
  <text x="904" y="486" fill="#6B7280" font-family="Arial, sans-serif" font-size="12">xyz</text>
  <text x="904" y="506" fill="#6B7280" font-family="Arial, sans-serif" font-size="12">xyz@gmail.com</text>
  <text x="904" y="526" fill="#6B7280" font-family="Arial, sans-serif" font-size="12">+91-987377373</text>
  <text x="1062" y="460" fill="#374151" font-family="Arial, sans-serif" font-size="14" font-weight="700">Payment Details</text>
  <text x="1062" y="486" fill="#6B7280" font-family="Arial, sans-serif" font-size="12">Method: ONLINE</text>
  <text x="1062" y="506" fill="#6B7280" font-family="Arial, sans-serif" font-size="12">Bank / UPI: -</text>
  <rect x="888" y="540" width="330" height="46" rx="8" fill="#F8FAFC"/>
  <text x="902" y="568" fill="#334155" font-family="Arial, sans-serif" font-size="12" font-weight="700">ITEM</text>
  <text x="1040" y="568" fill="#334155" font-family="Arial, sans-serif" font-size="12" font-weight="700">QUANTITY</text>
  <text x="1132" y="568" fill="#334155" font-family="Arial, sans-serif" font-size="12" font-weight="700">PRICE</text>
  <text x="1194" y="568" fill="#334155" font-family="Arial, sans-serif" font-size="12" font-weight="700">TOTAL</text>
  <text x="902" y="610" fill="#475569" font-family="Arial, sans-serif" font-size="12">Development kit</text>
  <text x="1040" y="610" fill="#475569" font-family="Arial, sans-serif" font-size="12">4</text>
  <text x="1130" y="610" fill="#475569" font-family="Arial, sans-serif" font-size="12">Rs 19.99</text>
  <text x="1194" y="610" fill="#475569" font-family="Arial, sans-serif" font-size="12">Rs 79.96</text>
  <rect x="888" y="640" width="184" height="98" rx="12" fill="#FAFAFA" stroke="#F1F5F9"/>
  <rect x="1084" y="640" width="134" height="98" rx="12" fill="#FAFAFA" stroke="#F1F5F9"/>
  <text x="904" y="668" fill="#374151" font-family="Arial, sans-serif" font-size="14" font-weight="700">Notes</text>
  <text x="904" y="694" fill="#6B7280" font-family="Arial, sans-serif" font-size="12">THANK YOU FOR VISITING..</text>
  <text x="1098" y="668" fill="#6B7280" font-family="Arial, sans-serif" font-size="12">Subtotal</text>
  <text x="1180" y="668" fill="#111827" font-family="Arial, sans-serif" font-size="12" font-weight="700">Rs 79.96</text>
  <text x="1098" y="690" fill="#6B7280" font-family="Arial, sans-serif" font-size="12">Tax</text>
  <text x="1186" y="690" fill="#111827" font-family="Arial, sans-serif" font-size="12" font-weight="700">Rs 1.58</text>
  <text x="1098" y="712" fill="#6B7280" font-family="Arial, sans-serif" font-size="12">Discount</text>
  <text x="1178" y="712" fill="#111827" font-family="Arial, sans-serif" font-size="12" font-weight="700">Rs 0.00</text>
  <text x="1098" y="734" fill="#111827" font-family="Arial, sans-serif" font-size="13" font-weight="700">Total</text>
  <text x="1172" y="734" fill="#111827" font-family="Arial, sans-serif" font-size="13" font-weight="700">Rs 81.54</text>

  <rect x="80" y="784" width="270" height="42" rx="10" fill="#ECE9FF"/>
  <text x="215" y="811" text-anchor="middle" fill="#4C1D95" font-family="Arial, sans-serif" font-size="17">Sign up or login to get started</text>
  <rect x="514" y="784" width="228" height="42" rx="10" fill="#ECE9FF"/>
  <text x="628" y="804" text-anchor="middle" fill="#4C1D95" font-family="Arial, sans-serif" font-size="16">Fill details and click</text>
  <text x="628" y="822" text-anchor="middle" fill="#4C1D95" font-family="Arial, sans-serif" font-size="16">'Create Invoice'</text>
  <rect x="950" y="784" width="252" height="42" rx="10" fill="#ECE9FF"/>
  <text x="1076" y="804" text-anchor="middle" fill="#4C1D95" font-family="Arial, sans-serif" font-size="16">Preview your invoice and</text>
  <text x="1076" y="822" text-anchor="middle" fill="#4C1D95" font-family="Arial, sans-serif" font-size="16">download or print</text>

  <defs>
    <linearGradient id="grad1" x1="474" y1="456" x2="792" y2="456" gradientUnits="userSpaceOnUse">
      <stop stop-color="#7C3AED"/>
      <stop offset="1" stop-color="#9333EA"/>
    </linearGradient>
  </defs>
</svg>
