<svg width="96" height="96" viewBox="0 0 96 96" fill="none" xmlns="http://www.w3.org/2000/svg">
  <rect x="10" y="8" width="54" height="70" rx="10" fill="white" stroke="#0B2C63" stroke-width="6"/>
  <path d="M53 8L72 27V72" stroke="#0B2C63" stroke-width="6" stroke-linecap="round" stroke-linejoin="round"/>
  <path d="M53 8V22C53 27.5228 57.4772 32 63 32H72" fill="#42A5F5"/>
  <path d="M53 8V22C53 27.5228 57.4772 32 63 32H72" stroke="#0B2C63" stroke-width="6" stroke-linejoin="round"/>
  <line x1="24" y1="31" x2="49" y2="31" stroke="#B0BAC9" stroke-width="5" stroke-linecap="round"/>
  <line x1="24" y1="43" x2="49" y2="43" stroke="#B0BAC9" stroke-width="5" stroke-linecap="round"/>
  <line x1="24" y1="55" x2="44" y2="55" stroke="#B0BAC9" stroke-width="5" stroke-linecap="round"/>
  <circle cx="66" cy="64" r="19" fill="white" stroke="#0B2C63" stroke-width="6"/>
  <path d="M57 67L64 60L69 65L76 57" stroke="#22C55E" stroke-width="5" stroke-linecap="round" stroke-linejoin="round"/>
  <path d="M72 57H76V61" stroke="#22C55E" stroke-width="5" stroke-linecap="round" stroke-linejoin="round"/>
  <rect x="58" y="70" width="5" height="8" rx="1" fill="#0B2C63"/>
  <rect x="65" y="66" width="5" height="12" rx="1" fill="#0B2C63"/>
  <rect x="72" y="61" width="5" height="17" rx="1" fill="#0B2C63"/>
</svg>
